<svg xmlns="http://www.w3.org/2000/svg" viewBox="0 0 345.81 11.85"><g data-name="Layer 2"><path d="M345.81 5.44v6.4C344.38 11.92.38 9.65.21 9.73c-.48 0 0 7.48 0-9.57.72.04 1.43.11 2.15.12h4.73a11.38 11.38 0 013.1.14c1.6.48 3 1.58 4.8 1.48.26 0 .52.19.79.25 1.85.37 3.68.81 5.54 1.06a27.72 27.72 0 003.87.09 7.7 7.7 0 002.46-.17c1.67-.57 3.26-1.39 4.91-2a7.4 7.4 0 012.37-.45c1.1-.05 2.21.14 3.31.1s2-.33 3.07-.38c2.87-.15 5.74-.14 8.6-.35 1.48-.11 2.69-.12 3.85 1.08 1 1 2.55.77 3.88 1.05 1.81.39 3.49 1.08 5.42.68 1.59-.32 3.25-.28 4.85-.54 1.4-.22 2.8-1 4.15-.89A79.28 79.28 0 0083 1.22c2.65-.16 5.34-.45 8-.57 1.5-.06 3 .12 4.51.15 2.63.06 5.26 0 7.87.14 2.07.11 4.13.45 6.2.63 3.33.28 6.67.43 10 .77 2.45.26 4.86.88 7.31 1.1s4.71 1.19 7.17.68a1.18 1.18 0 01.8.2 8.41 8.41 0 005.19 1.41c1.72-.09 3.48.79 5.15-.23.18-.11.49 0 .71 0 2-.63 4.1.74 6.2-.32.22 1.48 1.1 1.35 2.16 1.16a24.54 24.54 0 013.32-.17c.28 0 .62.11.81 0q2.09-1.42 4.12-2.93c1-.73 1.86-1.87 3-2.15a26.82 26.82 0 016.08-.63c1.53 0 3.07.42 4.62.49 6.71.3 13.45 0 20.1 1.52a94.11 94.11 0 0011 1.58 24 24 0 004.1-.4c1.19-.08 2.4 0 3.59-.1 3.77-.35 7.53-.75 11.3-1.13 2.72-.27 5.45-.52 8.17-.78 2.88-.28 5.77-.89 8.63.23.44.17 1 0 1.53 0 1 .13 2 .31 3 .49.14 0 .28.19.4.18a8.24 8.24 0 015.25.82 1.14 1.14 0 00.46.08c1.1.16 2.2.3 3.29.47s2.27.83 3.47.21c.14-.07.38 0 .57.07a4 4 0 001.35.31c2-.33 4-.74 6-1.15 1.79-.37 3.56-.79 5.36-1.14a8.63 8.63 0 015.08.12h4.56c1.4 0 3 .92 4.64.12.36-.19.95.05 1.43.1a24 24 0 002.91.25c.93 0 1.82-.6 2.73.2a7 7 0 001.84.82l.38-.41a2.38 2.38 0 001.21.34c.95.12 2.1 0 2.81.46.93.63 1.36.48 2-.25s1.06-.89 1.66-.11c.42.54.82.41 1.33.09a3.26 3.26 0 013.23.06 2.17 2.17 0 001.4.37c.74-.08 1.46-.58 2.17-.53 2.14.14 4.26.53 6.4.67a44.53 44.53 0 004.47-.1c.07 0 .14-.09.21-.1.93 0 1.86-.14 2.79-.14 1.34 0 2.69.06 4 0 .71 0 1.49-.35 2.12-.15 2.69.85 5.51-.09 8.21.73a30.54 30.54 0 004.44.69z" fill="#5e634d" data-name="Layer 1"/></g></svg>