<svg xmlns="http://www.w3.org/2000/svg" viewBox="0 0 358.84 422.87"><defs><style>.cls-1{fill:#433c26}</style></defs><g id="Layer_2" data-name="Layer 2"><g id="Layer_1-2" data-name="Layer 1"><path class="cls-1" d="M180.3 84.09h-27.8V25.54h-33.16V0h33s11.54.22 18.31 4.05a18.72 18.72 0 019.63 16.53zm-63.48 14.84h94.89v12.12h-94.89z"/><path class="cls-1" d="M165.66 106.83C74.17 106.83 0 151.4 0 206.39s74.17 99.55 165.66 99.55 165.67-44.57 165.67-99.55-74.17-99.56-165.67-99.56zM66.71 237.76a28.71 28.71 0 1128.71-28.7 28.71 28.71 0 01-28.71 28.7zm96.56 0a28.71 28.71 0 1128.73-28.7 28.71 28.71 0 01-28.73 28.7zm96.56 0a28.71 28.71 0 1128.71-28.7 28.7 28.7 0 01-28.71 28.7z"/><ellipse class="cls-1" cx="340.62" cy="238.89" rx="13.19" ry="35.65" transform="rotate(-21.14 340.694 238.926)"/><ellipse class="cls-1" cx="340.86" cy="177.22" rx="35.71" ry="13.17" transform="rotate(-68.3 341.199 176.866)"/><path class="cls-1" d="M277.18 417.66H54.87c-23.67 0-40.2-16.27-40.2-39.58 0-25.87 15-41.31 40.2-41.31h222.19a46.44 46.44 0 0125.79 8.6c7.15 5.17 15.69 14.81 15.69 31.36 0 11.95-3.84 22.09-11.1 29.34-7.51 7.48-18.25 11.59-30.26 11.59zM54.87 348.41c-13 0-28.56 5.15-28.56 29.67 0 16.72 11.48 27.92 28.56 27.92h222.3c8.79 0 16.82-3 22.05-8.2s7.68-12.19 7.68-21.1c0-9.34-3.66-16.72-10.87-21.93a34.66 34.66 0 00-19-6.39H54.87z"/><path class="cls-1" d="M276.82 397.88a21 21 0 1121-21 21 21 0 01-21 21zm0-35.48a14.49 14.49 0 1014.5 14.49 14.51 14.51 0 00-14.5-14.49zM56.16 397.88a21 21 0 1121-21 21 21 0 01-21 21zm0-35.48a14.49 14.49 0 1014.49 14.49 14.51 14.51 0 00-14.49-14.49z"/><path class="cls-1" transform="rotate(-12.4 318.103 368.317)" d="M311.46 361.69h13.16v13.16h-13.16z"/><path class="cls-1" transform="rotate(12.4 15.201 367.128)" d="M8.64 360.49H21.8v13.16H8.64z"/><path class="cls-1" transform="rotate(18.73 318.61 388.956)" d="M312.04 382.4h13.16v13.16h-13.16z"/><path class="cls-1" transform="rotate(-19.85 14.624 389.03)" d="M8.02 382.4h13.16v13.16H8.02z"/><path class="cls-1" d="M161.38 331.33h13.16v13.16h-13.16zm29.23 0h13.16v13.16h-13.16zm29.22 0h13.16v13.16h-13.16zm30.43-1.19h13.16v13.16h-13.16z"/><path class="cls-1" transform="rotate(12.4 283.813 337.994)" d="M277.2 331.33h13.16v13.16H277.2z"/><path class="cls-1" transform="rotate(48.81 307.673 346.92)" d="M301.09 340.31h13.16v13.16h-13.16z"/><path class="cls-1" transform="rotate(48.81 26.563 346.91)" d="M19.99 340.31h13.16v13.16H19.99z"/><path class="cls-1" transform="rotate(-7.13 51.013 337.288)" d="M44.47 330.94h13.16v13.16H44.47z"/><path class="cls-1" d="M73.7 330.14h13.16v13.16H73.7zm29.22 1.19h13.16v13.16h-13.16zm29.23 0h13.16v13.16h-13.16zm29.9 77.08h13.2v13.2h-13.2zm29.33 0h13.2v13.2h-13.2zm29.32 0h13.2v13.2h-13.2zm30.53 1.2h13.2v13.2h-13.2z"/><path class="cls-1" transform="rotate(-12.4 284.899 415.05)" d="M278.26 408.41h13.2v13.2h-13.2z"/><path class="cls-1" transform="rotate(-48.81 307.673 406.034)" d="M301.03 399.41h13.2v13.2h-13.2z"/><path class="cls-1" transform="rotate(-48.81 28.004 406.033)" d="M21.39 399.41h13.2v13.2h-13.2z"/><path class="cls-1" transform="rotate(7.13 51.32 415.104)" d="M44.75 408.81h13.2v13.2h-13.2z"/><path class="cls-1" d="M74.07 409.61h13.2v13.2h-13.2zm29.33-1.2h13.2v13.2h-13.2zm29.33 0h13.2v13.2h-13.2zm78.99-379.63A14.3 14.3 0 11226 14.48a14.32 14.32 0 01-14.28 14.3zm0-26.82a12.52 12.52 0 1012.51 12.52A12.53 12.53 0 00211.72 2z"/><path class="cls-1" d="M207.57 6.78h4.72a6.47 6.47 0 012.39.39 4.51 4.51 0 011.58 1 3.53 3.53 0 01.89 1.38 4.77 4.77 0 01.28 1.57 4.61 4.61 0 01-.67 2.5 3.91 3.91 0 01-2.06 1.62l3.46 6.31h-2.39l-3.17-6h-3v6h-2.06zm4.9 6.93a2.89 2.89 0 002.09-.68 2.49 2.49 0 00.7-1.84 2.39 2.39 0 00-.76-1.89 3 3 0 00-2.08-.68h-2.79v5.09z"/></g></g></svg>