<svg xmlns="http://www.w3.org/2000/svg" viewBox="0 0 436.51 137.68"><defs><style>.cls-1{fill:#433c26}</style></defs><g id="Layer_2" data-name="Layer 2"><g id="Layer_1-2" data-name="Layer 1"><path class="cls-1" d="M19.31 75.42L0 42.38h15l11.23 19.9 11.24-19.9h15l-19.31 33v18.18H19.31zM59 42.38h37.78v12.56H73V62h22.17v11.44H73v7.78h24.37v12.34H59zm48.47 0h16.31v78.5h19.45v16.19h-35.76z"/><path class="cls-1" d="M151 93.56h-16.28V15h-19.46V0h19.37s6.77.13 10.75 2.38a11 11 0 015.62 9.69zm38.09-51.91c15.71 0 28.27 11.89 28.27 26.5s-12.56 26.44-28.27 26.44-28.2-11.82-28.2-26.44 12.56-26.5 28.2-26.5zm0 40.45a14 14 0 10-14-13.95 13.89 13.89 0 0014 13.95zm31.33-40.45h13.66l8.66 28.63 7.64-28.63h11.23l7.64 28.56 8.66-28.56h13.66l-15.79 51.17h-12.26L256 66.54l-7.49 26.28h-12.38zm81.43 32.95a15.26 15.26 0 0012.3 6.09c4.1 0 6.58-1.07 6.58-3.54 0-3.54-6.37-3.82-13.44-6.51-6.86-2.54-11.38-6.72-11.38-14.21 0-9.76 8.48-14.78 17.68-14.78 9.4 0 15.06 3.67 18.24 7.85L323 57.07a11.25 11.25 0 00-8.91-3.9c-3.61 0-5.37 1.35-5.37 3 0 3.53 3.89 3 13.15 6.29 8.77 3.11 11.95 7.71 11.95 14.22 0 9-6 15.63-19.66 15.63-12.09 0-18.67-5.59-21.78-10.47zm40.01-32.24h13.44V69c0 8.48 3.46 11.17 8.7 11.17s8.7-2.69 8.7-11.17V42.36h13.43v28.07c0 14.92-10.18 21.93-22.13 21.93s-22.14-7-22.14-21.93zm54.91 0h22.91c7.43 0 13.23 5.3 13.23 12.58 0 4.74-2.34 8.35-6.3 9.91 6.51 1.34 9.9 6.08 9.9 12.23 0 8.34-6.36 14.57-15 14.57h-24.74zM416.71 62a4.39 4.39 0 000-8.77h-6.51V62zm1.84 18.6a4.83 4.83 0 005-4.81c0-2.62-2.05-4.6-5.09-4.6h-8.26v9.41zM180 110.92l-3.6 3.29a10.53 10.53 0 00-7.62-2.95 10.72 10.72 0 100 21.44 10.5 10.5 0 007.23-2.6v-5.54h-8.39v-4.81h13.5v12.17a16.54 16.54 0 01-23.72 1.25 15.76 15.76 0 010-22.34 15.81 15.81 0 0111.38-4.46 15.23 15.23 0 0111.22 4.55zm8.82 26.15v-30.18h19.23v4.89h-13.81V119h12.94v4.89h-12.94v8.32h14.11v4.89zm30.18-3.9a15.68 15.68 0 010-22.25 16.31 16.31 0 0122.6 0 15.62 15.62 0 01.05 22.25 16.47 16.47 0 01-22.65 0zm3.72-3.46a10.84 10.84 0 0015.12 0 11.1 11.1 0 000-15.33 10.72 10.72 0 00-15.12 0 10.55 10.55 0 00-3 7.67 10.39 10.39 0 003.04 7.66z"/></g></g></svg>