<svg xmlns="http://www.w3.org/2000/svg" viewBox="0 0 467.33 302.99"><defs><style>.cls-1{fill:#433c26}</style></defs><g id="Layer_2" data-name="Layer 2"><g id="Layer_1-2" data-name="Layer 1"><path class="cls-1" d="M30.73 120L0 67.45h23.84l17.88 31.67L59.6 67.45h23.84L52.7 120v28.9h-22zM94 67.45h60v20h-37.83v11.2h35.29v18.23h-35.29v12.39H155v19.63H94zm77 0h26v124.93h31v25.78h-57z"/><path class="cls-1" d="M240.37 148.9h-26v-125h-31V0h30.84s10.77.21 17.1 3.79a17.49 17.49 0 019 15.43zM301 66.29c25 0 45 18.93 45 42.18s-20 42.07-45 42.07-44.88-18.81-44.88-42.07S276.05 66.29 301 66.29zm0 64.38a22.26 22.26 0 10-22.21-22.2 22.12 22.12 0 0022.21 22.2zm49.81-64.38h21.73l13.79 45.57 12.16-45.57h17.88l12.15 45.45 13.79-45.45H464l-25.12 81.45H419.4l-12-41.84-11.92 41.84h-19.66zM251 215a24.32 24.32 0 0019.59 9.68c6.53 0 10.47-1.69 10.47-5.63 0-5.63-10.14-6.08-21.39-10.35-10.92-4.06-18.12-10.7-18.12-22.63 0-15.53 13.5-23.52 28.14-23.52 15 0 24 5.85 29 12.49l-14.07 12.05c-2.7-3.27-7.43-6.2-14.18-6.2-5.75 0-8.56 2.14-8.56 4.84 0 5.63 6.19 4.73 20.94 10 13.95 4.95 19 12.27 19 22.63 0 14.4-9.57 24.87-31.29 24.87-19.25 0-29.72-8.89-34.67-16.66zm65.68-51.31h21.39v42.44c0 13.5 5.51 17.78 13.84 17.78s13.85-4.28 13.85-17.78v-42.44h21.38v44.69c0 23.75-16.21 34.89-35.23 34.89s-35.23-11.14-35.23-34.89zm87.39 0h36.47c11.81 0 21 8.44 21 20 0 7.54-3.71 13.28-10 15.76 10.35 2.14 15.76 9.68 15.76 19.47 0 13.28-10.13 23.19-23.87 23.19h-39.36zM435.81 195c3.83 0 6.64-2.92 6.64-7.09a6.63 6.63 0 00-6.64-6.86h-10.36V195zm2.93 29.61a7.68 7.68 0 008-7.66c0-4.16-3.27-7.31-8.11-7.31h-13.18v15zM349.87 280H365v17.2a23.44 23.44 0 01-2.81 2.13 19.73 19.73 0 01-3.68 1.84 27.7 27.7 0 01-4.69 1.3 32.15 32.15 0 01-5.82.48 23.16 23.16 0 01-9.09-1.71 20.09 20.09 0 01-11.31-11.84 25.41 25.41 0 01-1.52-8.95 24.48 24.48 0 011.58-8.86 22.15 22.15 0 014.43-7.21 20.77 20.77 0 016.82-4.85 23.14 23.14 0 0115-1 19.81 19.81 0 014.76 2.07 17.45 17.45 0 013.45 2.75 26.9 26.9 0 012.4 2.84l-4.4 3.75a23.26 23.26 0 00-1.88-2.29 13.47 13.47 0 00-2.58-2.17 15.28 15.28 0 00-3.4-1.61 13.55 13.55 0 00-4.36-.65 14.59 14.59 0 00-6.4 1.36 14.18 14.18 0 00-4.82 3.68 16.55 16.55 0 00-3 5.47 20.46 20.46 0 00-1.07 6.62 19.33 19.33 0 001.17 6.86 15.55 15.55 0 003.26 5.33 15.14 15.14 0 0011.22 4.76 20.73 20.73 0 006.37-.85 14 14 0 004.5-2.32v-8.8h-9.19zm27.81-21.24h27.16v5.49h-20.95v12.55h15.77v5.56h-15.77v14h22.5v5.56h-28.71zM435 303a21.2 21.2 0 01-8.66-1.78 22 22 0 01-11.64-12.06 24.12 24.12 0 010-17.69 22.66 22.66 0 014.62-7.17 22 22 0 0124.38-4.85 21.85 21.85 0 017 4.85 22.25 22.25 0 014.66 7.17 24.12 24.12 0 010 17.69 22 22 0 01-11.67 12.06A21.46 21.46 0 01435 303zm0-5.82a14.7 14.7 0 0011.35-5.05 16.66 16.66 0 003.14-5.4 19.16 19.16 0 001.09-6.5 19.42 19.42 0 00-1.09-6.56 16.66 16.66 0 00-3.14-5.4 14.57 14.57 0 00-4.91-3.65 15.29 15.29 0 00-6.44-1.33 15 15 0 00-6.4 1.33 14.56 14.56 0 00-4.88 3.65 16.49 16.49 0 00-3.14 5.4 19.43 19.43 0 00-1.1 6.56 19.16 19.16 0 001.1 6.5 16.49 16.49 0 003.14 5.4 15.08 15.08 0 004.88 3.69 14.76 14.76 0 006.4 1.35z"/></g></g></svg>